# xmcd
#
# Track frame offsets: 
#        150
#        17325
#        32102
#        49555
#        64042
#        76882
#        94947
#        108155
#        123935
#        140862
#
# Disc length: 2052 seconds
#
# Revision: 5
# Processed by: cddbd v1.5.2PL0 Copyright (c) Steve Scherf et al.
# Submitted via: ExactAudioCopy v1.1
#
DISCID=7908020a
DTITLE=Crystal Gayle - These Days
DYEAR=1980
DGENRE=Country
TTITLE0=Too Many Lovers
TTITLE1=If You Ever Change Your Mind
TTITLE2=Ain't No Love In The Heart Of The City
TTITLE3=Same Old Story (Same Old Song)
TTITLE4=Help Yourselves To Each Other
TTITLE5=Take It Easy
TTITLE6=I Just Can't Leave Your Love Alone
TTITLE7=You've Almost Got Me Believin'
TTITLE8=Lover Man (Oh Where Can You Be)
TTITLE9=What A Little Moonlight Can Do
EXTD=
EXTT0=
EXTT1=
EXTT2=
EXTT3=
EXTT4=
EXTT5=
EXTT6=
EXTT7=
EXTT8=
EXTT9=
PLAYORDER=
